<svg width="162" height="146" viewBox="0 0 162 146" fill="none" xmlns="http://www.w3.org/2000/svg">
<path d="M155.546 8.50137C155.538 8.50137 155.538 8.50157 155.53 8.49332C141.497 1.83557 125.93 -0.49933 109.257 1.53842C97.2612 3.01517 87.1132 9.87051 81 19.4735C74.8785 9.87876 64.739 3.01517 52.7353 1.53842C36.0455 -0.49933 20.5033 1.83557 6.47003 8.49332C6.47003 8.49332 6.47023 8.49332 6.46198 8.49332C2.88148 10.1928 0.5625 13.8799 0.5625 17.8894V125.181C0.5625 128.431 2.04665 131.41 4.63715 133.365C7.2194 135.32 10.6366 135.955 13.7633 135.056C37.7626 128.242 58.0238 131.13 77.5598 144.14C77.6423 144.198 77.7412 144.213 77.8237 144.263C77.9144 144.312 77.9805 144.396 78.0795 144.445C78.1702 144.495 78.2767 144.469 78.3675 144.519C79.2007 144.915 80.0844 145.179 80.9919 145.179C81.8994 145.179 82.7811 144.915 83.6144 144.519C83.7051 144.477 83.8137 144.495 83.9044 144.445C83.9952 144.396 84.0697 144.321 84.1522 144.263C84.2347 144.213 84.3335 144.198 84.416 144.14C103.927 131.13 124.197 128.242 148.213 135.056C151.331 135.939 154.754 135.32 157.337 133.365C159.927 131.41 161.413 128.423 161.413 125.181V17.8894C161.438 13.8964 159.127 10.2091 155.546 8.50137ZM37.5546 119.15C29.6263 119.15 21.435 120.256 12.9375 122.467V19.1351C24.6443 13.8386 37.1769 12.0903 51.2267 13.8228C64.6742 15.4728 74.8125 26.9397 74.8125 40.4862V128.192C62.9738 122.153 50.6226 119.15 37.5546 119.15ZM149.062 122.467C126.573 116.617 106.22 118.482 87.1875 128.192V40.4862C87.1875 26.9315 97.326 15.4728 110.765 13.8228C114.247 13.3938 117.639 13.1793 120.947 13.1793C130.971 13.1793 140.252 15.1504 149.054 19.1351V122.467H149.062Z" fill="#CFCFD3"/>
</svg>
